<svg xmlns="http://www.w3.org/2000/svg" width="256" height="256" viewBox="0 0 256 256" role="img" aria-label="Movies Monkey">
  <defs>
    <linearGradient id="g" x1="0" y1="0" x2="1" y2="1">
      <stop offset="0" stop-color="#7c3aed"/>
      <stop offset="1" stop-color="#06b6d4"/>
    </linearGradient>
    <filter id="shadow" x="-30%" y="-30%" width="160%" height="160%">
      <feDropShadow dx="0" dy="10" stdDeviation="14" flood-color="#000" flood-opacity="0.5"/>
    </filter>
  </defs>
  <rect x="24" y="24" width="208" height="208" rx="52" fill="#0b0b0f"/>
  <rect x="24" y="24" width="208" height="208" rx="52" fill="url(#g)" opacity="0.18"/>
  <g filter="url(#shadow)">
    <path d="M72 76c0-10 8-18 18-18h76c10 0 18 8 18 18v104c0 10-8 18-18 18H90c-10 0-18-8-18-18V76z" fill="#111118" stroke="rgba(255,255,255,0.18)"/>
    <path d="M96 78h16v100H96V78zm48 0h16v100h-16V78z" fill="url(#g)"/>
    <path d="M120 104l46 24-46 24v-48z" fill="#ffffff" opacity="0.95"/>
  </g>
</svg>
